<mxfile host="app.diagrams.net" modified="2020-03-22T23:06:53.959Z" agent="Mozilla/5.0 (Windows NT 10.0; Win64; x64; rv:74.0) Gecko/20100101 Firefox/74.0" etag="zusg_J1l7D4HWtHcyvEb" version="12.8.8" type="github">
  <diagram id="ODxXchdAwgTXNLU9TBr1" name="Page-1">
    <mxGraphModel dx="1381" dy="936" grid="1" gridSize="10" guides="1" tooltips="1" connect="1" arrows="1" fold="1" page="1" pageScale="1" pageWidth="850" pageHeight="1100" math="0" shadow="0">
      <root>
        <mxCell id="0" />
        <mxCell id="1" parent="0" />
        <mxCell id="Krg5OAJmCBE884iFsZVr-41" value="" style="rounded=0;whiteSpace=wrap;html=1;strokeColor=#FFFFFF;fillColor=#663300;align=left;" parent="1" vertex="1">
          <mxGeometry x="870" y="411" width="370" height="110" as="geometry" />
        </mxCell>
        <mxCell id="Krg5OAJmCBE884iFsZVr-55" style="edgeStyle=orthogonalEdgeStyle;rounded=0;orthogonalLoop=1;jettySize=auto;html=1;exitX=0;exitY=0.5;exitDx=0;exitDy=0;entryX=1;entryY=0.5;entryDx=0;entryDy=0;strokeColor=#66FF66;strokeWidth=6;" parent="1" source="Krg5OAJmCBE884iFsZVr-1" target="Krg5OAJmCBE884iFsZVr-33" edge="1">
          <mxGeometry relative="1" as="geometry" />
        </mxCell>
        <mxCell id="Krg5OAJmCBE884iFsZVr-1" value="&amp;nbsp;&amp;nbsp;&amp;nbsp;&amp;nbsp;&amp;nbsp;&amp;nbsp; Member STRUCT" style="rounded=0;whiteSpace=wrap;html=1;fontColor=#FAFAFA;align=left;verticalAlign=top;" parent="1" vertex="1">
          <mxGeometry x="1310" y="590" width="170" height="230" as="geometry" />
        </mxCell>
        <mxCell id="Krg5OAJmCBE884iFsZVr-2" value="Password" style="rounded=0;whiteSpace=wrap;html=1;fontColor=#FAFAFA;" parent="1" vertex="1">
          <mxGeometry x="1320" y="688" width="150" height="30" as="geometry" />
        </mxCell>
        <mxCell id="Krg5OAJmCBE884iFsZVr-3" value="IsActivated" style="rounded=0;whiteSpace=wrap;html=1;fontColor=#FAFAFA;" parent="1" vertex="1">
          <mxGeometry x="1320" y="748" width="150" height="30" as="geometry" />
        </mxCell>
        <mxCell id="Krg5OAJmCBE884iFsZVr-4" value="MemberRole" style="rounded=0;whiteSpace=wrap;html=1;fontColor=#FAFAFA;" parent="1" vertex="1">
          <mxGeometry x="1320" y="718" width="150" height="30" as="geometry" />
        </mxCell>
        <mxCell id="Krg5OAJmCBE884iFsZVr-5" value="JoinDate" style="rounded=0;whiteSpace=wrap;html=1;fontColor=#FAFAFA;" parent="1" vertex="1">
          <mxGeometry x="1320" y="778" width="150" height="30" as="geometry" />
        </mxCell>
        <mxCell id="Krg5OAJmCBE884iFsZVr-6" value="Email Address" style="rounded=0;whiteSpace=wrap;html=1;fontColor=#FAFAFA;" parent="1" vertex="1">
          <mxGeometry x="1320" y="628" width="150" height="30" as="geometry" />
        </mxCell>
        <mxCell id="Krg5OAJmCBE884iFsZVr-7" value="Username" style="rounded=0;whiteSpace=wrap;html=1;fontColor=#FAFAFA;" parent="1" vertex="1">
          <mxGeometry x="1320" y="658" width="150" height="30" as="geometry" />
        </mxCell>
        <mxCell id="Krg5OAJmCBE884iFsZVr-9" value="&amp;nbsp;&amp;nbsp;&amp;nbsp;&amp;nbsp;&amp;nbsp;&amp;nbsp;&amp;nbsp;&amp;nbsp;&amp;nbsp;&amp;nbsp;&amp;nbsp;&amp;nbsp;&amp;nbsp; Security" style="rounded=0;whiteSpace=wrap;html=1;fontColor=#FAFAFA;align=left;verticalAlign=top;" parent="1" vertex="1">
          <mxGeometry x="1275" y="100" width="150" height="230" as="geometry" />
        </mxCell>
        <mxCell id="Krg5OAJmCBE884iFsZVr-11" value="" style="rounded=0;whiteSpace=wrap;html=1;fontColor=#FAFAFA;" parent="1" vertex="1">
          <mxGeometry x="1275" y="245" width="150" height="30" as="geometry" />
        </mxCell>
        <mxCell id="Krg5OAJmCBE884iFsZVr-12" value="" style="rounded=0;whiteSpace=wrap;html=1;fontColor=#FAFAFA;" parent="1" vertex="1">
          <mxGeometry x="1275" y="215" width="150" height="30" as="geometry" />
        </mxCell>
        <mxCell id="Krg5OAJmCBE884iFsZVr-13" value="" style="rounded=0;whiteSpace=wrap;html=1;fontColor=#FAFAFA;" parent="1" vertex="1">
          <mxGeometry x="1275" y="275" width="150" height="30" as="geometry" />
        </mxCell>
        <mxCell id="Krg5OAJmCBE884iFsZVr-42" style="edgeStyle=orthogonalEdgeStyle;rounded=0;orthogonalLoop=1;jettySize=auto;html=1;exitX=1;exitY=0.5;exitDx=0;exitDy=0;entryX=1;entryY=0.5;entryDx=0;entryDy=0;strokeColor=#0FCF1E;strokeWidth=6;" parent="1" source="Krg5OAJmCBE884iFsZVr-14" target="Krg5OAJmCBE884iFsZVr-41" edge="1">
          <mxGeometry relative="1" as="geometry">
            <Array as="points">
              <mxPoint x="1530" y="140" />
              <mxPoint x="1530" y="466" />
            </Array>
          </mxGeometry>
        </mxCell>
        <mxCell id="Krg5OAJmCBE884iFsZVr-14" value="GetUserIDSecurityCode" style="rounded=0;whiteSpace=wrap;html=1;fontColor=#FAFAFA;" parent="1" vertex="1">
          <mxGeometry x="1275" y="125" width="150" height="30" as="geometry" />
        </mxCell>
        <mxCell id="Krg5OAJmCBE884iFsZVr-15" value="VerifyPasswordReq" style="rounded=0;whiteSpace=wrap;html=1;fontColor=#FAFAFA;" parent="1" vertex="1">
          <mxGeometry x="1275" y="155" width="150" height="30" as="geometry" />
        </mxCell>
        <mxCell id="Krg5OAJmCBE884iFsZVr-19" value="&lt;div&gt;&amp;nbsp;CRYPTOGRAPHY FUNCTIONS&lt;br&gt;&lt;/div&gt;" style="rounded=0;whiteSpace=wrap;html=1;fontColor=#FAFAFA;align=center;verticalAlign=top;" parent="1" vertex="1">
          <mxGeometry x="220" y="100" width="430" height="810" as="geometry" />
        </mxCell>
        <mxCell id="Krg5OAJmCBE884iFsZVr-22" value="&lt;div&gt;CREATE A PASSWORD SECURITY CODE&lt;br&gt;&lt;/div&gt;&lt;div&gt;&lt;br&gt;&lt;/div&gt;&lt;div&gt;func CreatePasswordSecurityCode( pw string ) ( string, error ) { }&lt;/div&gt;&lt;div&gt;&lt;br&gt;&lt;/div&gt;--Creates a security code for a password&#39;s cryptography using their input&amp;nbsp; " style="rounded=0;whiteSpace=wrap;html=1;fontColor=#FAFAFA;align=left;spacingLeft=8;fillColor=#39470B;verticalAlign=top;" parent="1" vertex="1">
          <mxGeometry x="230" y="412.5" width="410" height="100" as="geometry" />
        </mxCell>
        <mxCell id="Krg5OAJmCBE884iFsZVr-23" value="&lt;div&gt;CREATE A USER SECURITY CODE&lt;br&gt;&lt;/div&gt;&lt;div&gt;&lt;br&gt;&lt;/div&gt;&lt;div&gt;func CreateUserSecurityCode( s string ) ( string, error ) { }&lt;/div&gt;&lt;div&gt;&lt;br&gt;&lt;/div&gt;&lt;div&gt;--Creates a security code for user cryptography using their email address &lt;br&gt;&lt;/div&gt;" style="rounded=0;whiteSpace=wrap;html=1;fontColor=#FAFAFA;align=left;spacingLeft=8;fillColor=#39470B;verticalAlign=top;" parent="1" vertex="1">
          <mxGeometry x="230" y="140" width="410" height="115" as="geometry" />
        </mxCell>
        <mxCell id="Krg5OAJmCBE884iFsZVr-24" value="&lt;div&gt;CREATE A MESSAGE SECURITY CODE&lt;br&gt;&lt;/div&gt;&lt;div&gt;&lt;br&gt;&lt;/div&gt;&lt;div&gt;func CreateMessageSecurityCode( s string ) ( string , error ) { }&lt;/div&gt;&lt;div&gt;&lt;br&gt;&lt;/div&gt;&lt;div&gt;--Creates a security code for user cryptography using their email address&lt;/div&gt;&lt;div&gt;combined with the recipients email address&lt;br&gt; &lt;/div&gt;" style="rounded=0;whiteSpace=wrap;html=1;fontColor=#FAFAFA;align=left;spacingLeft=8;fillColor=#39470B;verticalAlign=top;" parent="1" vertex="1">
          <mxGeometry x="230" y="270" width="410" height="124" as="geometry" />
        </mxCell>
        <mxCell id="Krg5OAJmCBE884iFsZVr-25" value="&lt;div&gt;VERIFY PASSWORD REQUIREMENTS&lt;br&gt;&lt;/div&gt;&lt;div&gt;&lt;br&gt;&lt;/div&gt;&lt;div&gt;func VerifyPasswordRequirements( pw string&amp;nbsp; ) ( error ) { }&lt;/div&gt;&lt;div&gt;&lt;br&gt;&lt;/div&gt;&lt;div&gt;--Check if all conditions set for the password requirements are met before allowing the password to be set: &lt;br&gt;&lt;/div&gt;&lt;div&gt;PW length:&amp;nbsp;&amp;nbsp;&amp;nbsp;&amp;nbsp;&amp;nbsp;&amp;nbsp;&amp;nbsp;&amp;nbsp;&amp;nbsp;&amp;nbsp;&amp;nbsp;&amp;nbsp;&amp;nbsp;&amp;nbsp;&amp;nbsp;&amp;nbsp;&amp;nbsp;&amp;nbsp;&amp;nbsp;&amp;nbsp;&amp;nbsp;&amp;nbsp;&amp;nbsp;&amp;nbsp;&amp;nbsp;&amp;nbsp;&amp;nbsp;&amp;nbsp;&amp;nbsp;&amp;nbsp;&amp;nbsp;&amp;nbsp;&amp;nbsp;&amp;nbsp; 8 Characters &lt;br&gt;&lt;/div&gt;&lt;div&gt;Special Chars Allowed:&amp;nbsp;&amp;nbsp; &amp;nbsp; &amp;nbsp; &amp;nbsp;&amp;nbsp; &lt;br&gt;&lt;pre style=&quot;background-color: #2b2b2b ; color: #a9b7c6 ; font-family: &amp;#34;consolas&amp;#34; ; font-size: 9.8pt&quot;&gt;&lt;span style=&quot;color: #6a8759&quot;&gt;&#39;!&#39;&lt;/span&gt;&lt;span style=&quot;color: #cc7832&quot;&gt;, &lt;/span&gt;&lt;span style=&quot;color: #6a8759&quot;&gt;&#39;@&#39;&lt;/span&gt;&lt;span style=&quot;color: #cc7832&quot;&gt;, &lt;/span&gt;&lt;span style=&quot;color: #6a8759&quot;&gt;&#39;#&#39;&lt;/span&gt;&lt;span style=&quot;color: #cc7832&quot;&gt;, &lt;/span&gt;&lt;span style=&quot;color: #6a8759&quot;&gt;&#39;$&#39;&lt;/span&gt;&lt;span style=&quot;color: #cc7832&quot;&gt;, &lt;/span&gt;&lt;span style=&quot;color: #6a8759&quot;&gt;&#39;%&#39;&lt;/span&gt;&lt;span style=&quot;color: #cc7832&quot;&gt;, &lt;br&gt;&lt;/span&gt;&lt;span style=&quot;color: #6a8759&quot;&gt;&#39;^&#39;&lt;/span&gt;&lt;span style=&quot;color: #cc7832&quot;&gt;, &lt;/span&gt;&lt;span style=&quot;color: #6a8759&quot;&gt;&#39;&amp;amp;&#39;&lt;/span&gt;&lt;span style=&quot;color: #cc7832&quot;&gt;, &lt;/span&gt;&lt;span style=&quot;color: #6a8759&quot;&gt;&#39;*&#39;&lt;/span&gt;&lt;span style=&quot;color: #cc7832&quot;&gt;, &lt;/span&gt;&lt;span style=&quot;color: #6a8759&quot;&gt;&#39;(&#39;&lt;/span&gt;&lt;span style=&quot;color: #cc7832&quot;&gt;, &lt;/span&gt;&lt;span style=&quot;color: #6a8759&quot;&gt;&#39;)&#39;&lt;/span&gt;&lt;span style=&quot;color: #cc7832&quot;&gt;, &lt;/span&gt;&lt;span style=&quot;color: #6a8759&quot;&gt;&#39;~&#39;&lt;br&gt;&lt;/span&gt;&lt;/pre&gt;&lt;/div&gt;&lt;div&gt;&lt;br&gt;&lt;/div&gt;&lt;div&gt;&lt;br&gt;&lt;/div&gt;" style="rounded=0;whiteSpace=wrap;html=1;fontColor=#FAFAFA;align=left;spacingLeft=8;fillColor=#336600;verticalAlign=top;" parent="1" vertex="1">
          <mxGeometry x="230" y="643.5" width="410" height="246.5" as="geometry" />
        </mxCell>
        <mxCell id="Krg5OAJmCBE884iFsZVr-31" style="edgeStyle=orthogonalEdgeStyle;rounded=0;orthogonalLoop=1;jettySize=auto;html=1;exitX=1;exitY=0;exitDx=0;exitDy=0;strokeWidth=6;entryX=0;entryY=0.25;entryDx=0;entryDy=0;strokeColor=#F2F24E;" parent="1" source="Krg5OAJmCBE884iFsZVr-26" target="Krg5OAJmCBE884iFsZVr-14" edge="1">
          <mxGeometry relative="1" as="geometry">
            <mxPoint x="1270" y="130" as="targetPoint" />
            <Array as="points">
              <mxPoint x="1100" y="133" />
              <mxPoint x="1270" y="133" />
            </Array>
          </mxGeometry>
        </mxCell>
        <mxCell id="Krg5OAJmCBE884iFsZVr-26" value="Get the security code to check if the member exists or to use as the key for the value of the member added to the bucket" style="rounded=0;whiteSpace=wrap;html=1;fontColor=#FAFAFA;" parent="1" vertex="1">
          <mxGeometry x="910" y="140" width="170" height="90" as="geometry" />
        </mxCell>
        <mxCell id="Krg5OAJmCBE884iFsZVr-45" style="edgeStyle=orthogonalEdgeStyle;rounded=0;orthogonalLoop=1;jettySize=auto;html=1;exitX=0.5;exitY=0;exitDx=0;exitDy=0;entryX=0.5;entryY=1;entryDx=0;entryDy=0;strokeColor=#FF3333;strokeWidth=3;" parent="1" source="Krg5OAJmCBE884iFsZVr-29" target="Krg5OAJmCBE884iFsZVr-44" edge="1">
          <mxGeometry relative="1" as="geometry" />
        </mxCell>
        <mxCell id="Krg5OAJmCBE884iFsZVr-29" value="If the user exists return the error &quot;Member exists&quot; instead of adding the member" style="rounded=0;whiteSpace=wrap;html=1;fontColor=#FAFAFA;fillColor=#3B0808;" parent="1" vertex="1">
          <mxGeometry x="890" y="435" width="170" height="55" as="geometry" />
        </mxCell>
        <mxCell id="Krg5OAJmCBE884iFsZVr-33" value="MEMBER DATABASE" style="rounded=0;whiteSpace=wrap;html=1;fontColor=#FAFAFA;strokeColor=#FFFFFF;fillColor=#663300;" parent="1" vertex="1">
          <mxGeometry x="970" y="650" width="170" height="90" as="geometry" />
        </mxCell>
        <mxCell id="Krg5OAJmCBE884iFsZVr-51" style="edgeStyle=orthogonalEdgeStyle;rounded=0;orthogonalLoop=1;jettySize=auto;html=1;exitX=0.5;exitY=1;exitDx=0;exitDy=0;entryX=0.5;entryY=0;entryDx=0;entryDy=0;strokeColor=#66FF66;strokeWidth=6;" parent="1" source="Krg5OAJmCBE884iFsZVr-35" target="Krg5OAJmCBE884iFsZVr-1" edge="1">
          <mxGeometry relative="1" as="geometry" />
        </mxCell>
        <mxCell id="Krg5OAJmCBE884iFsZVr-35" value="&lt;div&gt;If member exist access the member to the bolt DB bucket&lt;br&gt;&lt;/div&gt;" style="rounded=0;whiteSpace=wrap;html=1;fontColor=#FAFAFA;fillColor=#00331A;" parent="1" vertex="1">
          <mxGeometry x="1070" y="440" width="140" height="50" as="geometry" />
        </mxCell>
        <mxCell id="Krg5OAJmCBE884iFsZVr-44" value="Return the error and have the receiver handle it" style="rounded=0;whiteSpace=wrap;html=1;fontColor=#FAFAFA;fillColor=#3B0808;" parent="1" vertex="1">
          <mxGeometry x="890" y="330" width="170" height="55" as="geometry" />
        </mxCell>
        <mxCell id="Krg5OAJmCBE884iFsZVr-61" value="&lt;div&gt;CREATE A BANK SECURITY CODE&lt;/div&gt;&lt;div&gt;&lt;br&gt;&lt;/div&gt;&lt;div&gt;func CreateBankSecurityCode( bankID string ) ( Member, error ) { }&lt;/div&gt;&lt;div&gt;&lt;br&gt;&lt;/div&gt;--Creates a security code for user cryptography using their email address " style="rounded=0;whiteSpace=wrap;html=1;fontColor=#FAFAFA;align=left;spacingLeft=8;fillColor=#39470B;verticalAlign=top;" parent="1" vertex="1">
          <mxGeometry x="230" y="528" width="410" height="100" as="geometry" />
        </mxCell>
      </root>
    </mxGraphModel>
  </diagram>
</mxfile>
